<mxfile host="app.diagrams.net" modified="2023-06-28T06:49:07.781Z" agent="Mozilla/5.0 (Windows NT 10.0; Win64; x64) AppleWebKit/537.36 (KHTML, like Gecko) Chrome/113.0.0.0 Safari/537.36" version="21.3.6" etag="s7Sep3-7zTJnSNLlk3z5" type="github">
  <diagram name="第 1 页" id="up2WzP2WOq_WwcbOWC76">
    <mxGraphModel>
      <root>
        <mxCell id="0" />
        <mxCell id="1" parent="0" />
      </root>
    </mxGraphModel>
  </diagram>
</mxfile>
